<?xml version="1.0" encoding="utf-8"?>
<!-- Generator: Adobe Illustrator 17.0.0, SVG Export Plug-In . SVG Version: 6.00 Build 0)  -->
<!DOCTYPE svg PUBLIC "-//W3C//DTD SVG 1.1//EN" "http://www.w3.org/Graphics/SVG/1.1/DTD/svg11.dtd">
<svg version="1.1" id="Livello_1" xmlns="http://www.w3.org/2000/svg" xmlns:xlink="http://www.w3.org/1999/xlink" x="0px" y="0px"
	 width="1190.55px" height="841.89px" viewBox="0 0 1190.55 841.89" enable-background="new 0 0 1190.55 841.89"
	 xml:space="preserve">
<polyline fill="none" stroke="#000000" stroke-width="0.5" stroke-miterlimit="10" points="202.935,236.435 202.935,322.618 
	77.394,322.618 77.394,197.076 202.935,197.076 202.935,219.943 "/>
<polyline fill="none" stroke="#000000" stroke-width="0.5" stroke-miterlimit="10" points="532.53,92.272 532.53,69.289 
	658.071,69.289 658.071,194.83 532.53,194.83 532.53,108.764 "/>
<polyline fill="none" stroke="#000000" stroke-width="0.5" stroke-miterlimit="10" points="202.935,378.098 202.935,465.504 
	77.394,465.504 77.394,339.963 202.935,339.963 202.935,361.606 "/>
<polyline fill="none" stroke="#000000" stroke-width="0.5" stroke-miterlimit="10" points="202.935,519.9 202.935,608.503 
	77.394,608.503 77.394,482.962 202.935,482.962 202.935,503.408 "/>
<polyline fill="none" stroke="#000000" stroke-width="0.5" stroke-miterlimit="10" points="202.935,664.367 202.935,751.502 
	77.394,751.502 77.394,625.96 202.935,625.96 202.935,647.875 "/>
<polyline fill="none" stroke="#000000" stroke-width="0.5" stroke-miterlimit="10" points="987.295,647.857 987.295,625.96 
	1112.836,625.96 1112.836,751.502 987.295,751.502 987.295,664.35 "/>
<polyline fill="none" stroke="#000000" stroke-width="0.5" stroke-miterlimit="10" points="987.295,503.337 987.295,482.962 
	1112.836,482.962 1112.836,608.504 987.295,608.504 987.295,519.829 "/>
<polyline fill="none" stroke="#000000" stroke-width="0.5" stroke-miterlimit="10" points="987.295,361.622 987.295,340.075 
	1112.836,340.075 1112.836,465.616 987.295,465.616 987.295,378.114 "/>
<polyline fill="none" stroke="#000000" stroke-width="0.5" stroke-miterlimit="10" points="987.295,220.025 987.295,197.076 
	1112.836,197.076 1112.836,322.618 987.295,322.618 987.295,236.518 "/>
<line fill="none" stroke="#000000" stroke-width="0.5" stroke-miterlimit="10" x1="365.669" y1="0" x2="365.669" y2="226.772"/>
<line fill="none" stroke="#000000" stroke-width="0.5" stroke-miterlimit="10" x1="368.504" y1="0" x2="368.504" y2="229.606"/>
<line fill="none" stroke="#000000" stroke-width="0.5" stroke-miterlimit="10" x1="379.843" y1="0" x2="379.843" y2="368.504"/>
<line fill="none" stroke="#000000" stroke-width="0.5" stroke-miterlimit="10" x1="382.677" y1="371.339" x2="382.677" y2="0"/>
<line fill="none" stroke="#000000" stroke-width="0.5" stroke-miterlimit="10" x1="394.016" y1="0" x2="394.016" y2="510.236"/>
<line fill="none" stroke="#000000" stroke-width="0.5" stroke-miterlimit="10" x1="396.85" y1="513.071" x2="396.85" y2="0"/>
<line fill="none" stroke="#000000" stroke-width="0.5" stroke-miterlimit="10" x1="408.189" y1="0" x2="408.189" y2="654.803"/>
<line fill="none" stroke="#000000" stroke-width="0.5" stroke-miterlimit="10" x1="411.024" y1="657.638" x2="411.024" y2="0"/>
<line fill="none" stroke="#000000" stroke-width="0.5" stroke-miterlimit="10" x1="422.362" y1="0" x2="422.362" y2="657.638"/>
<line fill="none" stroke="#000000" stroke-width="0.5" stroke-miterlimit="10" x1="425.197" y1="654.803" x2="425.197" y2="0"/>
<line fill="none" stroke="#000000" stroke-width="0.5" stroke-miterlimit="10" x1="436.536" y1="0" x2="436.536" y2="513.071"/>
<line fill="none" stroke="#000000" stroke-width="0.5" stroke-miterlimit="10" x1="439.37" y1="510.236" x2="439.37" y2="0"/>
<line fill="none" stroke="#000000" stroke-width="0.5" stroke-miterlimit="10" x1="450.709" y1="0" x2="450.709" y2="371.339"/>
<line fill="none" stroke="#000000" stroke-width="0.5" stroke-miterlimit="10" x1="453.543" y1="368.504" x2="453.543" y2="0"/>
<line fill="none" stroke="#000000" stroke-width="0.5" stroke-miterlimit="10" x1="464.882" y1="0" x2="464.882" y2="229.606"/>
<line fill="none" stroke="#000000" stroke-width="0.5" stroke-miterlimit="10" x1="467.717" y1="226.772" x2="467.717" y2="0"/>
<line fill="none" stroke="#000000" stroke-width="0.5" stroke-miterlimit="10" x1="479.055" y1="0" x2="479.055" y2="102.047"/>
<line fill="none" stroke="#000000" stroke-width="0.5" stroke-miterlimit="10" x1="481.89" y1="99.213" x2="481.89" y2="0"/>
<line fill="none" stroke="#000000" stroke-width="0.5" stroke-miterlimit="10" x1="479.055" y1="102.047" x2="525.701" y2="102.047"/>
<line fill="none" stroke="#000000" stroke-width="0.5" stroke-miterlimit="10" x1="980.466" y1="226.772" x2="467.717" y2="226.772"/>
<line fill="none" stroke="#000000" stroke-width="0.5" stroke-miterlimit="10" x1="980.466" y1="229.606" x2="464.882" y2="229.606"/>
<line fill="none" stroke="#000000" stroke-width="0.5" stroke-miterlimit="10" x1="980.466" y1="368.504" x2="453.543" y2="368.504"/>
<line fill="none" stroke="#000000" stroke-width="0.5" stroke-miterlimit="10" x1="980.466" y1="371.339" x2="450.709" y2="371.339"/>
<line fill="none" stroke="#000000" stroke-width="0.5" stroke-miterlimit="10" x1="980.466" y1="510.236" x2="439.37" y2="510.236"/>
<line fill="none" stroke="#000000" stroke-width="0.5" stroke-miterlimit="10" x1="980.466" y1="513.071" x2="436.536" y2="513.071"/>
<line fill="none" stroke="#000000" stroke-width="0.5" stroke-miterlimit="10" x1="980.886" y1="654.803" x2="425.197" y2="654.803"/>
<line fill="none" stroke="#000000" stroke-width="0.5" stroke-miterlimit="10" x1="980.466" y1="657.638" x2="422.362" y2="657.638"/>
<line fill="none" stroke="#000000" stroke-width="0.5" stroke-miterlimit="10" x1="209.764" y1="657.638" x2="411.024" y2="657.638"/>
<line fill="none" stroke="#000000" stroke-width="0.5" stroke-miterlimit="10" x1="408.189" y1="654.803" x2="209.764" y2="654.803"/>
<line fill="none" stroke="#000000" stroke-width="0.5" stroke-miterlimit="10" x1="396.85" y1="513.071" x2="209.764" y2="513.071"/>
<line fill="none" stroke="#000000" stroke-width="0.5" stroke-miterlimit="10" x1="394.016" y1="510.236" x2="209.764" y2="510.236"/>
<line fill="none" stroke="#000000" stroke-width="0.5" stroke-miterlimit="10" x1="382.677" y1="371.339" x2="209.764" y2="371.339"/>
<line fill="none" stroke="#000000" stroke-width="0.5" stroke-miterlimit="10" x1="379.843" y1="368.504" x2="209.764" y2="368.504"/>
<line fill="none" stroke="#000000" stroke-width="0.5" stroke-miterlimit="10" x1="365.669" y1="226.772" x2="209.764" y2="226.772"/>
<line fill="none" stroke="#000000" stroke-width="0.5" stroke-miterlimit="10" x1="368.504" y1="229.606" x2="209.764" y2="229.606"/>
<line fill="none" stroke="#000000" stroke-width="0.5" stroke-miterlimit="10" x1="202.935" y1="219.943" x2="209.764" y2="226.772"/>
<line fill="none" stroke="#000000" stroke-width="0.5" stroke-miterlimit="10" x1="202.935" y1="236.435" x2="209.764" y2="229.606"/>
<line fill="none" stroke="#000000" stroke-width="0.5" stroke-miterlimit="10" x1="202.935" y1="361.606" x2="209.764" y2="368.434"/>
<line fill="none" stroke="#000000" stroke-width="0.5" stroke-miterlimit="10" x1="202.935" y1="378.098" x2="209.764" y2="371.269"/>
<line fill="none" stroke="#000000" stroke-width="0.5" stroke-miterlimit="10" x1="202.935" y1="503.408" x2="209.764" y2="510.236"/>
<line fill="none" stroke="#000000" stroke-width="0.5" stroke-miterlimit="10" x1="202.935" y1="519.9" x2="209.764" y2="513.071"/>
<line fill="none" stroke="#000000" stroke-width="0.5" stroke-miterlimit="10" x1="202.935" y1="647.875" x2="209.764" y2="654.703"/>
<line fill="none" stroke="#000000" stroke-width="0.5" stroke-miterlimit="10" x1="202.935" y1="664.367" x2="209.764" y2="657.538"/>
<line fill="none" stroke="#000000" stroke-width="0.5" stroke-miterlimit="10" x1="987.295" y1="647.857" x2="980.466" y2="654.686"/>
<line fill="none" stroke="#000000" stroke-width="0.5" stroke-miterlimit="10" x1="987.295" y1="664.349" x2="980.466" y2="657.521"/>
<line fill="none" stroke="#000000" stroke-width="0.5" stroke-miterlimit="10" x1="987.295" y1="503.337" x2="980.466" y2="510.166"/>
<line fill="none" stroke="#000000" stroke-width="0.5" stroke-miterlimit="10" x1="987.295" y1="519.829" x2="980.466" y2="513"/>
<line fill="none" stroke="#000000" stroke-width="0.5" stroke-miterlimit="10" x1="987.295" y1="361.622" x2="980.466" y2="368.45"/>
<line fill="none" stroke="#000000" stroke-width="0.5" stroke-miterlimit="10" x1="987.295" y1="378.114" x2="980.466" y2="371.285"/>
<line fill="none" stroke="#000000" stroke-width="0.5" stroke-miterlimit="10" x1="987.295" y1="220.025" x2="980.466" y2="226.854"/>
<line fill="none" stroke="#000000" stroke-width="0.5" stroke-miterlimit="10" x1="987.295" y1="236.518" x2="980.466" y2="229.689"/>
<polyline fill="none" stroke="#000000" stroke-width="0.5" stroke-miterlimit="10" points="532.53,92.272 525.701,99.1 
	525.701,99.213 481.89,99.213 "/>
<line fill="none" stroke="#000000" stroke-width="0.5" stroke-miterlimit="10" x1="532.53" y1="108.764" x2="525.701" y2="101.935"/>
</svg>
